<svg>
   <defs>
      <symbol xmlns="http://www.w3.org/2000/svg" viewBox="0 0 448 512" id="icon-hamburger-menu">
         <path
            d="M0 96C0 78.3 14.3 64 32 64H416c17.7 0 32 14.3 32 32s-14.3 32-32 32H32C14.3 128 0 113.7 0 96zM0 256c0-17.7 14.3-32 32-32H416c17.7 0 32 14.3 32 32s-14.3 32-32 32H32c-17.7 0-32-14.3-32-32zM448 416c0 17.7-14.3 32-32 32H32c-17.7 0-32-14.3-32-32s14.3-32 32-32H416c17.7 0 32 14.3 32 32z">
         </path>
      </symbol>
      <symbol xmlns="http://www.w3.org/2000/svg" viewBox="0 0 384 512" id="icon-close">
         <path
            d="M376.6 84.5c11.3-13.6 9.5-33.8-4.1-45.1s-33.8-9.5-45.1 4.1L192 206 56.6 43.5C45.3 29.9 25.1 28.1 11.5 39.4S-3.9 70.9 7.4 84.5L150.3 256 7.4 427.5c-11.3 13.6-9.5 33.8 4.1 45.1s33.8 9.5 45.1-4.1L192 306 327.4 468.5c11.3 13.6 31.5 15.4 45.1 4.1s15.4-31.5 4.1-45.1L233.7 256 376.6 84.5z"></path>
      </symbol>
      <symbol xmlns="http://www.w3.org/2000/svg" viewBox="0 0 448 512" id="icon-arrow-right">
         <path
            d="M438.6 278.6c12.5-12.5 12.5-32.8 0-45.3l-160-160c-12.5-12.5-32.8-12.5-45.3 0s-12.5 32.8 0 45.3L338.8 224 32 224c-17.7 0-32 14.3-32 32s14.3 32 32 32l306.7 0L233.4 393.4c-12.5 12.5-12.5 32.8 0 45.3s32.8 12.5 45.3 0l160-160z"></path>
      </symbol>
      <symbol xmlns="http://www.w3.org/2000/svg" id="icon-notification-bell" viewBox="0 0 32 32">
         <g transform="translate(-396 -100)">
            <path fill-rule="evenodd"
               d="M409.50586 125.05664a.99999499.99999499 0 00-1.27734.60938C408.08138 126.082 408 126.53287 408 127c0 2.19729 1.80271 4 4 4 2.19729 0 4-1.80271 4-4 0-.46714-.0814-.91804-.22852-1.33398a.99999499.99999499 0 00-1.27734-.60938.99999499.99999499 0 00-.60937 1.27734C413.95902 126.54394 414 126.76543 414 127c0 1.11641-.88359 2-2 2-1.11641 0-2-.88359-2-2 0-.23459.041-.4561.11523-.66602a.99999499.99999499 0 00-.60937-1.27734zM412 104.83398c-5.51334 0-10 4.5088-10 10.03907V126a1 1 0 001 1 1 1 0 001-1v-11.12695c0-4.45407 3.57223-8.03907 8-8.03907 1.88968 0 3.61524.65418 4.98437 1.75196a1 1 0 001.4043-.1543 1 1 0 00-.1543-1.4043c-1.70808-1.36955-3.88033-2.19336-6.23437-2.19336zm9 9.03907a1 1 0 00-1 1V126a1 1 0 001 1 1 1 0 001-1v-11.12695a1 1 0 00-1-1z"
               color="#000"></path>
            <path fill-rule="evenodd"
               d="M400 125a1 1 0 00-1 1 1 1 0 001 1h24a1 1 0 001-1 1 1 0 00-1-1zM420 106c-2.74958 0-5 2.25042-5 5 0 2.74958 2.25042 5 5 5 2.74958 0 5-2.25042 5-5 0-2.74958-2.25042-5-5-5zm0 2c1.6687 0 3 1.3313 3 3 0 1.6687-1.3313 3-3 3-1.6687 0-3-1.3313-3-3 0-1.6687 1.3313-3 3-3zM412 101a1 1 0 00-1 1v3a1 1 0 001 1 1 1 0 001-1v-3a1 1 0 00-1-1z"
               color="#000"></path>
         </g>
      </symbol>
      <symbol fill="none" xmlns="http://www.w3.org/2000/svg" viewBox="0 0 62 62" id="icon-done-ring">
         <path
            d="M23.4688 25.5209L32.9352 32.6207C33.3537 32.9345 33.9433 32.8729 34.2878 32.4792L51.5417 12.7604"
            stroke="white" stroke-width="3" stroke-linecap="round"></path>
         <path
            d="M54.0938 30.625C54.0938 35.4242 52.5905 40.1028 49.7951 44.0038C46.9997 47.9048 43.0525 50.8322 38.5081 52.3748C33.9636 53.9174 29.05 53.9978 24.4575 52.6047C19.865 51.2116 15.8242 48.4149 12.9027 44.6075C9.98112 40.8001 8.32557 36.1731 8.16855 31.3765C8.01152 26.5799 9.36091 21.8546 12.0272 17.8642C14.6935 13.8739 18.5427 10.8189 23.0343 9.12841C27.5258 7.4379 32.4341 7.19677 37.0697 8.43889"
            stroke="white" stroke-width="3" stroke-linecap="round"></path>
      </symbol>
      <symbol fill="none" xmlns="http://www.w3.org/2000/svg" viewBox="0 0 63 62" id="icon-add-user">
         <ellipse cx="31.5" cy="20.7916" rx="10.2083" ry="10.2083" stroke="white" stroke-width="3"
            stroke-linecap="round"></ellipse>
         <path fill-rule="evenodd" clip-rule="evenodd"
            d="M42.8125 42.1102C39.3984 40.5376 35.485 39.7083 31.5 39.7083C26.768 39.7083 22.1369 40.8776 18.323 43.0725C14.5099 45.2669 11.6715 48.4001 10.3665 52.053C10.0878 52.8331 10.4942 53.6915 11.2744 53.9702C12.0545 54.2489 12.9129 53.8424 13.1916 53.0623C14.213 50.2033 16.5011 47.5823 19.8193 45.6727C23.1367 43.7636 27.2432 42.7083 31.5 42.7083C32.5234 42.7083 33.538 42.7693 34.5351 42.8885C35.1388 42.5229 35.8469 42.3125 36.6042 42.3125L42.8125 42.3125V42.1102ZM50.8125 54.0011C51.1026 54.0834 51.4201 54.0794 51.7257 53.9702C52.5058 53.6915 52.9123 52.8331 52.6336 52.053C52.4212 51.4585 52.1681 50.8777 51.8769 50.3125H50.8125V54.0011Z"
            fill="white"></path>
         <path d="M46.8125 36.1042L46.8125 56.5209" stroke="white" stroke-width="2.5"
            stroke-linecap="round"></path>
         <path d="M57.0208 46.3125L36.6042 46.3125" stroke="white" stroke-width="2.5"
            stroke-linecap="round"></path>
      </symbol>
      <symbol xmlns="http://www.w3.org/2000/svg" id="icon-eye-open" viewBox="0 0 36 24">
         <g fill="#1D1D1B" fill-rule="nonzero">
            <path
               d="M18 4c4.446 0 8.92 2.754 13.048 8-4.127 5.246-8.602 8-13.048 8s-8.92-2.754-13.048-8C9.079 6.754 13.554 4 18 4zm0-4C11.725 0 5.45 4 0 12v3-3c5.45 8 11.725 12 18 12s12.55-4 18-12v3-3C30.55 4 24.275 0 18 0z"></path>
            <circle cx="18" cy="12" r="4"></circle>
         </g>
      </symbol>
      <symbol xmlns="http://www.w3.org/2000/svg" id="icon-eye-close" viewBox="0 0 24 24">
         <path fill="none" d="M0 0h24v24H0V0zm0 0h24v24H0V0zm0 0h24v24H0V0zm0 0h24v24H0V0z"></path>
         <path
            d="M12 6.5c2.76 0 5 2.24 5 5 0 .51-.1 1-.24 1.46l3.06 3.06c1.39-1.23 2.49-2.77 3.18-4.53C21.27 7.11 17 4 12 4c-1.27 0-2.49.2-3.64.57l2.17 2.17c.47-.14.96-.24 1.47-.24zM2.71 3.16c-.39.39-.39 1.02 0 1.41l1.97 1.97C3.06 7.83 1.77 9.53 1 11.5 2.73 15.89 7 19 12 19c1.52 0 2.97-.3 4.31-.82l2.72 2.72c.39.39 1.02.39 1.41 0 .39-.39.39-1.02 0-1.41L4.13 3.16c-.39-.39-1.03-.39-1.42 0zM12 16.5c-2.76 0-5-2.24-5-5 0-.77.18-1.5.49-2.14l1.57 1.57c-.03.18-.06.37-.06.57 0 1.66 1.34 3 3 3 .2 0 .38-.03.57-.07L14.14 16c-.65.32-1.37.5-2.14.5zm2.97-5.33c-.15-1.4-1.25-2.49-2.64-2.64l2.64 2.64z"></path>
      </symbol>
      <symbol fill="none" xmlns="http://www.w3.org/2000/svg" viewBox="0 0 48 48"
         id="icon-patients">
         <path fill-rule="evenodd" clip-rule="evenodd"
            d="M33.5 13C35.433 13 37 11.433 37 9.5C37 7.567 35.433 6 33.5 6C31.567 6 30 7.567 30 9.5C30 11.433 31.567 13 33.5 13ZM38.6486 20C38.6984 20.3524 38.7424 20.7287 38.7806 21.1216C38.9992 23.3666 39 25.8009 39 26.4998C39 27.3282 39.6716 27.9998 40.5 27.9998C41.3284 27.9998 42 27.3282 42 26.4998V26.493C42 25.7857 42 23.2288 41.7665 20.8308C41.6507 19.6418 41.4698 18.4015 41.1696 17.4252C41.0223 16.9462 40.8147 16.4227 40.499 15.9892C40.1824 15.5547 39.59 15 38.6886 15H28.3114C27.41 15 26.8176 15.5547 26.501 15.9892C26.1853 16.4227 25.9777 16.9462 25.8304 17.4252C25.5302 18.4015 25.3492 19.6418 25.2335 20.8308C25 23.2288 25 25.7857 25 26.493V26.4998C25 27.3282 25.6716 27.9998 26.5 27.9998C27.3284 27.9998 28 27.3282 28 26.4998C28 25.8009 28.0008 23.3666 28.2194 21.1216C28.2576 20.7287 28.3016 20.3524 28.3514 20H29V40.4999C29 41.305 29.6356 41.9666 30.4401 41.9987C31.2446 42.0308 31.931 41.4221 31.9952 40.6195L32.8448 30H34.1552L35.0048 40.6196C35.069 41.4222 35.7554 42.0309 36.5599 41.9988C37.3644 41.9667 38 41.3051 38 40.5V20H38.6486Z"
            fill="#0038FF"></path>
         <path fill-rule="evenodd" clip-rule="evenodd"
            d="M18 9.5C18 11.433 16.433 13 14.5 13C12.567 13 11 11.433 11 9.5C11 7.567 12.567 6 14.5 6C16.433 6 18 7.567 18 9.5ZM18.8665 15.046C18.7467 15.0158 18.6236 15.0005 18.5 15.0005H13.0002C12.9869 15.0005 12.9733 15.0007 12.9601 15.001L12.4377 15.0009C11.6259 15.0008 10.7493 15.0008 10.4979 15.0012C10.375 15.0014 10.2526 15.0166 10.1335 15.0467C9.01975 15.3273 8.27154 16.0056 7.80063 16.9324C7.38842 17.7436 7.18744 18.7524 7.0204 19.7546L6.0204 25.7546C5.88421 26.5718 6.43624 27.3446 7.25339 27.4808C8.07055 27.617 8.84339 27.065 8.97958 26.2478L9.97958 20.2478C10.0724 19.6907 10.1579 19.2663 10.2448 18.9388L10.5 22.0002C10.4999 23.8697 8.80604 32.4085 8.20691 35.3703C8.09424 35.9273 8.46802 36.4634 9.03011 36.5471C13.1517 37.1615 15.8484 37.1418 19.9689 36.5426C20.5314 36.4608 20.9081 35.9272 20.7979 35.3696C20.2031 32.3609 18.5 23.6064 18.5 22L18.7552 18.9382C18.8421 19.2657 18.9276 19.6901 19.0204 20.2471L20.0204 26.2471C20.1566 27.0642 20.9294 27.6163 21.7466 27.4801C22.5638 27.3439 23.1158 26.5711 22.9796 25.7539L21.9796 19.7539C21.8126 18.7517 21.6116 17.7429 21.1994 16.9317C20.7285 16.0049 19.9802 15.3266 18.8665 15.046ZM11.0077 41.1241L10.6311 38.1115C11.6905 38.2418 12.6981 38.3256 13.6899 38.3637L12.9701 41.2426C12.8534 41.7097 12.4203 42.0273 11.9397 41.9982C11.4591 41.9692 11.0674 41.6018 11.0077 41.1241ZM16.0299 41.2421L15.3156 38.3853C16.3129 38.3733 17.3141 38.3149 18.3564 38.2111L17.9923 41.1236C17.9326 41.6014 17.5409 41.9687 17.0603 41.9977C16.5797 42.0268 16.1466 41.7092 16.0299 41.2421Z"
            fill="#0038FF"></path>
      </symbol>
      <symbol fill="none" xmlns="http://www.w3.org/2000/svg" viewBox="0 0 48 48" id="icon-doctor">
         <path fill-rule="evenodd" clip-rule="evenodd"
            d="M14.4326 33.4416C13.5732 33.9692 13 34.9177 13 36C13 37.6569 14.3431 39 16 39C17.6569 39 19 37.6569 19 36C19 34.476 17.8636 33.2174 16.3919 33.0254C16.3591 32.9079 16.3249 32.7725 16.2901 32.6206C16.1703 32.0972 16.056 31.4332 15.9709 30.7512C15.8856 30.0679 15.8327 29.3904 15.8292 28.8375C15.8279 28.6348 15.8334 28.4582 15.8446 28.3101C16.2293 28.1997 16.6151 28.1003 17 28.0126C17.4413 27.9121 17.7025 28.433 17.9141 28.8551C17.9436 28.9139 17.9721 28.9707 18 29.0237H22.0639C22.9797 29.0235 23.4324 29.0236 23.8903 29.0237C24.3376 29.0238 24.7906 29.0239 25.6851 29.0237H29.7493C29.9775 28.5902 30.4972 27.8981 31 28.0126C31.5363 28.1348 32.0745 28.2798 32.6089 28.4456L32.6056 28.4472C32.6044 28.4449 32.6045 28.4453 32.6057 28.4487C32.6104 28.4627 32.6324 28.5281 32.6542 28.6699C32.6791 28.8313 32.6964 29.0411 32.7035 29.2937C32.7177 29.798 32.6894 30.411 32.6297 31.0287C32.5699 31.6456 32.4811 32.2429 32.3811 32.7144C32.359 32.8188 32.3369 32.9141 32.3152 33H31C30.6212 33 30.275 33.214 30.1056 33.5528L29.1056 35.5528C29.0361 35.6916 29 35.8448 29 36V38C29 38.5523 29.4477 39 30 39H32V37H31V36.2361L31.618 35H34.382L35 36.2361V37H34V39H36C36.5523 39 37 38.5523 37 38V36C37 35.8448 36.9639 35.6916 36.8944 35.5528L35.8944 33.5528C35.725 33.214 35.3788 33 35 33H34.3643C34.4711 32.4673 34.56 31.8448 34.6203 31.2213C34.6856 30.5473 34.7198 29.8478 34.7027 29.2376L34.7019 29.2101C38.6895 30.8949 42 33.6661 42 36.5699V42H6V36.5699C6 33.5376 9.60993 30.6499 13.831 28.993C13.8424 29.6146 13.9013 30.3182 13.9862 30.9988C14.0779 31.7335 14.2029 32.4653 14.3406 33.0669C14.3701 33.1958 14.4008 33.3213 14.4326 33.4416ZM16 37.0147C16.5384 37.0147 17 36.5742 17 36C17 35.4258 16.5384 34.9853 16 34.9853C15.4616 34.9853 15 35.4258 15 36C15 36.5742 15.4616 37.0147 16 37.0147Z"
            fill="#0038FF"></path>
         <path fill-rule="evenodd" clip-rule="evenodd"
            d="M24 24C28.4183 24 32 20.4183 32 16C32 11.5817 28.4183 8 24 8C19.5817 8 16 11.5817 16 16C16 20.4183 19.5817 24 24 24ZM24 26C29.5228 26 34 21.5228 34 16C34 10.4772 29.5228 6 24 6C18.4772 6 14 10.4772 14 16C14 21.5228 18.4772 26 24 26Z"
            fill="#0038FF"></path>
      </symbol>
      <symbol fill="none" xmlns="http://www.w3.org/2000/svg" viewBox="0 0 52 52" id="icon-call">
         <path
            d="M3.67963 9.43149L10.404 2.70711C10.7945 2.31658 11.4277 2.31658 11.8182 2.70711L21.5151 12.404C21.9056 12.7945 21.9056 13.4277 21.5151 13.8182L17.1763 18.157C16.872 18.4614 16.7965 18.9263 16.989 19.3113L18.7936 22.9205C21.0191 27.3716 24.6284 30.9808 29.0795 33.2064L32.6887 35.011C33.0737 35.2035 33.5386 35.128 33.843 34.8237L38.1818 30.4849C38.5723 30.0944 39.2055 30.0944 39.596 30.4849L49.2929 40.1818C49.6834 40.5723 49.6834 41.2055 49.2929 41.596L42.5685 48.3204C40.4572 50.4317 37.1146 50.6693 34.7259 48.8777L19.2952 37.3048C17.5517 35.9971 16.0029 34.4483 14.6952 32.7048L3.12226 17.2741C1.33072 14.8854 1.56827 11.5428 3.67963 9.43149Z"
            stroke="white" stroke-width="3"></path>
      </symbol>
      <symbol fill="none" xmlns="http://www.w3.org/2000/svg" viewBox="0 0 58 58" id="icon-message">
         <rect x="9.66675" y="14.5" width="38.6667" height="29" rx="2" stroke="white"
            stroke-width="3"></rect>
         <path
            d="M9.66675 21.75L28.1057 30.9695C28.6687 31.251 29.3315 31.251 29.8945 30.9695L48.3334 21.75"
            stroke="white" stroke-width="3"></path>
      </symbol>
      <symbol xmlns="http://www.w3.org/2000/svg" viewBox="0 0 384 512" id="icon-location">
         <path
            d="M215.7 499.2C267 435 384 279.4 384 192C384 86 298 0 192 0S0 86 0 192c0 87.4 117 243 168.3 307.2c12.3 15.3 35.1 15.3 47.4 0zM192 128a64 64 0 1 1 0 128 64 64 0 1 1 0-128z"></path>
      </symbol>
      <symbol xmlns="http://www.w3.org/2000/svg" viewBox="0 0 512 512" id="icon-clock">
         <path
            d="M464 256A208 208 0 1 1 48 256a208 208 0 1 1 416 0zM0 256a256 256 0 1 0 512 0A256 256 0 1 0 0 256zM232 120V256c0 8 4 15.5 10.7 20l96 64c11 7.4 25.9 4.4 33.3-6.7s4.4-25.9-6.7-33.3L280 243.2V120c0-13.3-10.7-24-24-24s-24 10.7-24 24z"></path>
      </symbol>
      <symbol xmlns="http://www.w3.org/2000/svg" viewBox="0 0 448 512" id="icon-medical-book">
         <path
            d="M0 96C0 43 43 0 96 0H384h32c17.7 0 32 14.3 32 32V352c0 17.7-14.3 32-32 32v64c17.7 0 32 14.3 32 32s-14.3 32-32 32H384 96c-53 0-96-43-96-96V96zM64 416c0 17.7 14.3 32 32 32H352V384H96c-17.7 0-32 14.3-32 32zM208 112v48H160c-8.8 0-16 7.2-16 16v32c0 8.8 7.2 16 16 16h48v48c0 8.8 7.2 16 16 16h32c8.8 0 16-7.2 16-16V224h48c8.8 0 16-7.2 16-16V176c0-8.8-7.2-16-16-16H272V112c0-8.8-7.2-16-16-16H224c-8.8 0-16 7.2-16 16z"></path>
      </symbol>
      <symbol xmlns="http://www.w3.org/2000/svg" viewBox="0 0 640 512" id="icon-bell-slash">
         <path
            d="M38.8 5.1C28.4-3.1 13.3-1.2 5.1 9.2S-1.2 34.7 9.2 42.9l592 464c10.4 8.2 25.5 6.3 33.7-4.1s6.3-25.5-4.1-33.7L542.6 400c2.7-7.8 1.3-16.5-3.9-23l-14.9-18.6C495.5 322.9 480 278.8 480 233.4V200c0-75.8-55.5-138.6-128-150.1V32c0-17.7-14.3-32-32-32s-32 14.3-32 32V49.9c-43.9 7-81.5 32.7-104.4 68.7L38.8 5.1zM221.7 148.4C239.6 117.1 273.3 96 312 96h8 8c57.4 0 104 46.6 104 104v33.4c0 32.7 6.4 64.8 18.7 94.5L221.7 148.4zM406.2 416l-60.9-48H168.3c21.2-32.8 34.4-70.3 38.4-109.1L160 222.1v11.4c0 45.4-15.5 89.5-43.8 124.9L101.3 377c-5.8 7.2-6.9 17.1-2.9 25.4s12.4 13.6 21.6 13.6H406.2zM384 448H320 256c0 17 6.7 33.3 18.7 45.3s28.3 18.7 45.3 18.7s33.3-6.7 45.3-18.7s18.7-28.3 18.7-45.3z"></path>
      </symbol>
      <symbol xmlns="http://www.w3.org/2000/svg" viewBox="0 0 576 512"
         id="icon-file-circle-plus">
         <path
            d="M0 64C0 28.7 28.7 0 64 0H224V128c0 17.7 14.3 32 32 32H384v38.6C310.1 219.5 256 287.4 256 368c0 59.1 29.1 111.3 73.7 143.3c-3.2 .5-6.4 .7-9.7 .7H64c-35.3 0-64-28.7-64-64V64zm384 64H256V0L384 128zm48 96a144 144 0 1 1 0 288 144 144 0 1 1 0-288zm16 80c0-8.8-7.2-16-16-16s-16 7.2-16 16v48H368c-8.8 0-16 7.2-16 16s7.2 16 16 16h48v48c0 8.8 7.2 16 16 16s16-7.2 16-16V384h48c8.8 0 16-7.2 16-16s-7.2-16-16-16H448V304z"></path>
      </symbol>
      <symbol fill="none" xmlns="http://www.w3.org/2000/svg" viewBox="0 0 24 24" id="icon-drugs">
         <path fill-rule="evenodd" clip-rule="evenodd"
            d="M21 7C21 9.20915 19.2091 11 17 11C14.7908 11 13 9.20915 13 7C13 4.79086 14.7908 3 17 3C19.2091 3 21 4.79086 21 7ZM19.1411 7.49235C19.0793 7.7615 18.8109 7.9295 18.5418 7.8676L15.234 7.10715C14.9649 7.0453 14.7969 6.77695 14.8588 6.50785C14.9207 6.23875 15.1889 6.0707 15.458 6.1326L18.7659 6.89305C19.035 6.9549 19.203 7.22325 19.1411 7.49235Z"
            fill="#636363"></path>
         <path
            d="M8.3891 4.62258C8.06535 3.85668 6.98265 3.77942 6.54775 4.49119L3.14641 10.0574C2.75405 10.6995 3.19274 11.5192 3.95795 11.5739L9.89115 11.9972C10.6564 12.0518 11.2131 11.3031 10.921 10.6122L8.3891 4.62258Z"
            fill="#636363"></path>
         <path fill-rule="evenodd" clip-rule="evenodd"
            d="M17.6923 18.1796C19.1939 17.4794 19.8436 15.6944 19.1433 14.1928C18.4431 12.6912 16.6582 12.0415 15.1566 12.7417L9.71872 15.2774C8.21707 15.9777 7.56742 17.7626 8.26762 19.2642C8.96787 20.7658 10.7528 21.4155 12.2544 20.7153L17.6923 18.1796ZM14.9711 18.3451L17.2696 17.2733C18.2707 16.8065 18.7038 15.6165 18.237 14.6154C17.7702 13.6143 16.5803 13.1812 15.5792 13.648L13.2807 14.7198L14.9711 18.3451Z"
            fill="#636363"></path>
      </symbol>
      <symbol xmlns="http://www.w3.org/2000/svg" viewBox="0 0 576 512" id="icon-capsules-solid">
         <path
            d="M64 144c0-26.5 21.5-48 48-48s48 21.5 48 48V256H64V144zM0 144V368c0 61.9 50.1 112 112 112s112-50.1 112-112V189.6c1.8 19.1 8.2 38 19.8 54.8L372.3 431.7c35.5 51.7 105.3 64.3 156 28.1s63-107.5 27.5-159.2L427.3 113.3C391.8 61.5 321.9 49 271.3 85.2c-28 20-44.3 50.8-47.3 83V144c0-61.9-50.1-112-112-112S0 82.1 0 144zm296.6 64.2c-16-23.3-10-55.3 11.9-71c21.2-15.1 50.5-10.3 66 12.2l67 97.6L361.6 303l-65-94.8zM491 407.7c-.8 .6-1.6 1.1-2.4 1.6l4-2.8c-.5 .4-1 .8-1.6 1.2z"></path>
      </symbol>
      <symbol xmlns="http://www.w3.org/2000/svg" viewBox="0 0 512 512" id="icon-sad">
         <path
            d="M464 256A208 208 0 1 0 48 256a208 208 0 1 0 416 0zM0 256a256 256 0 1 1 512 0A256 256 0 1 1 0 256zM174.6 384.1c-4.5 12.5-18.2 18.9-30.7 14.4s-18.9-18.2-14.4-30.7C146.9 319.4 198.9 288 256 288s109.1 31.4 126.6 79.9c4.5 12.5-2 26.2-14.4 30.7s-26.2-2-30.7-14.4C328.2 358.5 297.2 336 256 336s-72.2 22.5-81.4 48.1zM144.4 208a32 32 0 1 1 64 0 32 32 0 1 1 -64 0zm192-32a32 32 0 1 1 0 64 32 32 0 1 1 0-64z"></path>
      </symbol>
      <symbol xmlns="http://www.w3.org/2000/svg" viewBox="0 0 512 512" id="icon-happy">
         <path
            d="M464 256A208 208 0 1 0 48 256a208 208 0 1 0 416 0zM0 256a256 256 0 1 1 512 0A256 256 0 1 1 0 256zm177.6 62.1C192.8 334.5 218.8 352 256 352s63.2-17.5 78.4-33.9c9-9.7 24.2-10.4 33.9-1.4s10.4 24.2 1.4 33.9c-22 23.8-60 49.4-113.6 49.4s-91.7-25.5-113.6-49.4c-9-9.7-8.4-24.9 1.4-33.9s24.9-8.4 33.9 1.4zM144.4 208a32 32 0 1 1 64 0 32 32 0 1 1 -64 0zm192-32a32 32 0 1 1 0 64 32 32 0 1 1 0-64z"></path>
      </symbol>
      <symbol xmlns="http://www.w3.org/2000/svg" viewBox="0 0 448 512" id="icon-user">
         <path
            d="M304 128a80 80 0 1 0 -160 0 80 80 0 1 0 160 0zM96 128a128 128 0 1 1 256 0A128 128 0 1 1 96 128zM49.3 464H398.7c-8.9-63.3-63.3-112-129-112H178.3c-65.7 0-120.1 48.7-129 112zM0 482.3C0 383.8 79.8 304 178.3 304h91.4C368.2 304 448 383.8 448 482.3c0 16.4-13.3 29.7-29.7 29.7H29.7C13.3 512 0 498.7 0 482.3z"></path>
      </symbol>
   </defs>
</svg>