<svg>
   <defs>
      <symbol xmlns="http://www.w3.org/2000/svg" viewBox="0 0 448 512" id="icon-hamburger-menu">
         <path
            d="M0 96C0 78.3 14.3 64 32 64H416c17.7 0 32 14.3 32 32s-14.3 32-32 32H32C14.3 128 0 113.7 0 96zM0 256c0-17.7 14.3-32 32-32H416c17.7 0 32 14.3 32 32s-14.3 32-32 32H32c-17.7 0-32-14.3-32-32zM448 416c0 17.7-14.3 32-32 32H32c-17.7 0-32-14.3-32-32s14.3-32 32-32H416c17.7 0 32 14.3 32 32z">
         </path>
      </symbol>
      <symbol xmlns="http://www.w3.org/2000/svg" viewBox="0 0 384 512" id="icon-close">
         <path
            d="M376.6 84.5c11.3-13.6 9.5-33.8-4.1-45.1s-33.8-9.5-45.1 4.1L192 206 56.6 43.5C45.3 29.9 25.1 28.1 11.5 39.4S-3.9 70.9 7.4 84.5L150.3 256 7.4 427.5c-11.3 13.6-9.5 33.8 4.1 45.1s33.8 9.5 45.1-4.1L192 306 327.4 468.5c11.3 13.6 31.5 15.4 45.1 4.1s15.4-31.5 4.1-45.1L233.7 256 376.6 84.5z"></path>
      </symbol>
      <symbol xmlns="http://www.w3.org/2000/svg" viewBox="0 0 448 512" id="icon-arrow-right">
         <path
            d="M438.6 278.6c12.5-12.5 12.5-32.8 0-45.3l-160-160c-12.5-12.5-32.8-12.5-45.3 0s-12.5 32.8 0 45.3L338.8 224 32 224c-17.7 0-32 14.3-32 32s14.3 32 32 32l306.7 0L233.4 393.4c-12.5 12.5-12.5 32.8 0 45.3s32.8 12.5 45.3 0l160-160z"></path>
      </symbol>
      <symbol xmlns="http://www.w3.org/2000/svg" id="icon-notification-bell" viewBox="0 0 32 32">
         <g transform="translate(-396 -100)">
            <path fill-rule="evenodd"
               d="M409.50586 125.05664a.99999499.99999499 0 00-1.27734.60938C408.08138 126.082 408 126.53287 408 127c0 2.19729 1.80271 4 4 4 2.19729 0 4-1.80271 4-4 0-.46714-.0814-.91804-.22852-1.33398a.99999499.99999499 0 00-1.27734-.60938.99999499.99999499 0 00-.60937 1.27734C413.95902 126.54394 414 126.76543 414 127c0 1.11641-.88359 2-2 2-1.11641 0-2-.88359-2-2 0-.23459.041-.4561.11523-.66602a.99999499.99999499 0 00-.60937-1.27734zM412 104.83398c-5.51334 0-10 4.5088-10 10.03907V126a1 1 0 001 1 1 1 0 001-1v-11.12695c0-4.45407 3.57223-8.03907 8-8.03907 1.88968 0 3.61524.65418 4.98437 1.75196a1 1 0 001.4043-.1543 1 1 0 00-.1543-1.4043c-1.70808-1.36955-3.88033-2.19336-6.23437-2.19336zm9 9.03907a1 1 0 00-1 1V126a1 1 0 001 1 1 1 0 001-1v-11.12695a1 1 0 00-1-1z"
               color="#000"></path>
            <path fill-rule="evenodd"
               d="M400 125a1 1 0 00-1 1 1 1 0 001 1h24a1 1 0 001-1 1 1 0 00-1-1zM420 106c-2.74958 0-5 2.25042-5 5 0 2.74958 2.25042 5 5 5 2.74958 0 5-2.25042 5-5 0-2.74958-2.25042-5-5-5zm0 2c1.6687 0 3 1.3313 3 3 0 1.6687-1.3313 3-3 3-1.6687 0-3-1.3313-3-3 0-1.6687 1.3313-3 3-3zM412 101a1 1 0 00-1 1v3a1 1 0 001 1 1 1 0 001-1v-3a1 1 0 00-1-1z"
               color="#000"></path>
         </g>
      </symbol>
      <symbol fill="none" xmlns="http://www.w3.org/2000/svg" viewBox="0 0 62 62" id="icon-done-ring">
         <path
            d="M23.4688 25.5209L32.9352 32.6207C33.3537 32.9345 33.9433 32.8729 34.2878 32.4792L51.5417 12.7604"
            stroke="white" stroke-width="3" stroke-linecap="round"></path>
         <path
            d="M54.0938 30.625C54.0938 35.4242 52.5905 40.1028 49.7951 44.0038C46.9997 47.9048 43.0525 50.8322 38.5081 52.3748C33.9636 53.9174 29.05 53.9978 24.4575 52.6047C19.865 51.2116 15.8242 48.4149 12.9027 44.6075C9.98112 40.8001 8.32557 36.1731 8.16855 31.3765C8.01152 26.5799 9.36091 21.8546 12.0272 17.8642C14.6935 13.8739 18.5427 10.8189 23.0343 9.12841C27.5258 7.4379 32.4341 7.19677 37.0697 8.43889"
            stroke="white" stroke-width="3" stroke-linecap="round"></path>
      </symbol>
      <symbol fill="none" xmlns="http://www.w3.org/2000/svg" viewBox="0 0 63 62" id="icon-add-user">
         <ellipse cx="31.5" cy="20.7916" rx="10.2083" ry="10.2083" stroke="white" stroke-width="3"
            stroke-linecap="round"></ellipse>
         <path fill-rule="evenodd" clip-rule="evenodd"
            d="M42.8125 42.1102C39.3984 40.5376 35.485 39.7083 31.5 39.7083C26.768 39.7083 22.1369 40.8776 18.323 43.0725C14.5099 45.2669 11.6715 48.4001 10.3665 52.053C10.0878 52.8331 10.4942 53.6915 11.2744 53.9702C12.0545 54.2489 12.9129 53.8424 13.1916 53.0623C14.213 50.2033 16.5011 47.5823 19.8193 45.6727C23.1367 43.7636 27.2432 42.7083 31.5 42.7083C32.5234 42.7083 33.538 42.7693 34.5351 42.8885C35.1388 42.5229 35.8469 42.3125 36.6042 42.3125L42.8125 42.3125V42.1102ZM50.8125 54.0011C51.1026 54.0834 51.4201 54.0794 51.7257 53.9702C52.5058 53.6915 52.9123 52.8331 52.6336 52.053C52.4212 51.4585 52.1681 50.8777 51.8769 50.3125H50.8125V54.0011Z"
            fill="white"></path>
         <path d="M46.8125 36.1042L46.8125 56.5209" stroke="white" stroke-width="2.5"
            stroke-linecap="round"></path>
         <path d="M57.0208 46.3125L36.6042 46.3125" stroke="white" stroke-width="2.5"
            stroke-linecap="round"></path>
      </symbol>
   </defs>
</svg>